<mxfile host="app.diagrams.net" modified="2023-10-12T16:52:59.314Z" agent="Mozilla/5.0 (Windows NT 10.0; Win64; x64) AppleWebKit/537.36 (KHTML, like Gecko) Chrome/117.0.0.0 Safari/537.36" version="21.8.2" etag="e93SbHuK6fBogOl29_J1" type="github">
  <diagram name="Page-1" id="VxHCa2H0EzAtG9VA1mKC">
    <mxGraphModel>
      <root>
        <mxCell id="0" />
        <mxCell id="1" parent="0" />
      </root>
    </mxGraphModel>
  </diagram>
</mxfile>
